<svg width="706" height="760" viewBox="0 0 706 760" fill="none" xmlns="http://www.w3.org/2000/svg">
<g opacity="0.08">
<path d="M248.271 271.71V815.407H6.75V458.146L241.648 276.775L248.271 271.71Z" fill="#ED1B24"/>
<path d="M248.277 262.828V271.501L241.652 276.635L6.68889 458.076V815.405H0V454.467L241.652 267.962L248.277 262.828Z" fill="white"/>
<path d="M462.177 262.76V810.287H253.39V24.297L511.753 223.714V290.599L470.425 258.707L462.177 252.342V262.76Z" fill="black" stroke="white" stroke-width="10.24"/>
<path d="M241.649 0V815.407H248.273V13.8769L516.878 221.198V301.06L510.189 295.856V304.529L516.878 309.664L523.501 314.798V217.659L241.649 0Z" fill="white"/>
<path d="M822 542.494V815H467V261L503.237 289.748L509.932 295.027L516.562 300.306L822 542.494Z" fill="white"/>
</g>
</svg>
